<?xml version="1.0" encoding="UTF-8"?>
<svg xmlns="http://www.w3.org/2000/svg" xmlns:xlink="http://www.w3.org/1999/xlink" width="400px" height="400px" viewBox="0 0 400 400" version="1.1">
<defs>
<filter id="alpha" filterUnits="objectBoundingBox" x="0%" y="0%" width="100%" height="100%">
  <feColorMatrix type="matrix" in="SourceGraphic" values="0 0 0 0 1 0 0 0 0 1 0 0 0 0 1 0 0 0 1 0"/>
</filter>
<mask id="mask0">
  <g filter="url(#alpha)">
<rect x="0" y="0" width="400" height="400" style="fill:rgb(0%,0%,0%);fill-opacity:0.2;stroke:none;"/>
  </g>
</mask>
<clipPath id="clip1">
  <rect x="0" y="0" width="400" height="400"/>
</clipPath>
<g id="surface5" clip-path="url(#clip1)">
<path style=" stroke:none;fill-rule:nonzero;fill:rgb(0%,0%,0%);fill-opacity:1;" d="M 64.875 144.136719 C 61.964844 144.089844 59.636719 141.109375 59.667969 137.46875 C 52.738281 108.734375 52.304688 79.960938 60.472656 51.132812 C 60.488281 49.984375 60.746094 48.863281 61.222656 47.882812 L 60.195312 47.867188 C 57.289062 47.828125 54.902344 50.742188 54.863281 54.378906 C 46.699219 83.207031 47.132812 111.984375 54.058594 140.71875 C 54.027344 144.355469 56.355469 147.339844 59.265625 147.386719 L 111.390625 148.148438 C 113.277344 148.167969 115.023438 146.921875 115.972656 144.886719 Z M 64.875 144.136719 "/>
</g>
<mask id="mask1">
  <g filter="url(#alpha)">
<rect x="0" y="0" width="400" height="400" style="fill:rgb(0%,0%,0%);fill-opacity:0.2;stroke:none;"/>
  </g>
</mask>
<clipPath id="clip2">
  <rect x="0" y="0" width="400" height="400"/>
</clipPath>
<g id="surface8" clip-path="url(#clip2)">
<path style=" stroke:none;fill-rule:nonzero;fill:rgb(0%,0%,0%);fill-opacity:1;" d="M 176.640625 23.777344 C 176.183594 23.769531 175.820312 23.304688 175.824219 22.730469 C 174.738281 18.226562 174.667969 13.714844 175.949219 9.191406 C 175.953125 9.011719 175.992188 8.835938 176.066406 8.683594 L 175.90625 8.679688 C 175.449219 8.675781 175.078125 9.132812 175.070312 9.703125 C 173.789062 14.222656 173.859375 18.734375 174.945312 23.242188 C 174.9375 23.8125 175.304688 24.28125 175.761719 24.289062 L 183.933594 24.40625 C 184.230469 24.410156 184.503906 24.214844 184.652344 23.894531 Z M 176.640625 23.777344 "/>
</g>
<mask id="mask2">
  <g filter="url(#alpha)">
<rect x="0" y="0" width="400" height="400" style="fill:rgb(0%,0%,0%);fill-opacity:0.2;stroke:none;"/>
  </g>
</mask>
<clipPath id="clip3">
  <rect x="0" y="0" width="400" height="400"/>
</clipPath>
<g id="surface11" clip-path="url(#clip3)">
<path style=" stroke:none;fill-rule:nonzero;fill:rgb(0%,0%,0%);fill-opacity:1;" d="M 159.324219 23.777344 C 158.867188 23.769531 158.503906 23.304688 158.507812 22.730469 C 157.421875 18.226562 157.351562 13.714844 158.632812 9.191406 C 158.636719 9.011719 158.675781 8.835938 158.75 8.683594 L 158.589844 8.679688 C 158.132812 8.675781 157.761719 9.132812 157.753906 9.703125 C 156.472656 14.222656 156.542969 18.734375 157.628906 23.242188 C 157.621094 23.8125 157.988281 24.28125 158.445312 24.289062 L 166.617188 24.40625 C 166.914062 24.410156 167.1875 24.214844 167.335938 23.894531 Z M 159.324219 23.777344 "/>
</g>
<mask id="mask3">
  <g filter="url(#alpha)">
<rect x="0" y="0" width="400" height="400" style="fill:rgb(0%,0%,0%);fill-opacity:0.2;stroke:none;"/>
  </g>
</mask>
<clipPath id="clip4">
  <rect x="0" y="0" width="400" height="400"/>
</clipPath>
<g id="surface14" clip-path="url(#clip4)">
<path style=" stroke:none;fill-rule:nonzero;fill:rgb(0%,0%,0%);fill-opacity:1;" d="M 145.472656 23.777344 C 145.015625 23.769531 144.648438 23.304688 144.65625 22.730469 C 143.566406 18.226562 143.5 13.714844 144.78125 9.191406 C 144.785156 9.011719 144.824219 8.835938 144.898438 8.683594 L 144.738281 8.679688 C 144.28125 8.675781 143.90625 9.132812 143.902344 9.703125 C 142.621094 14.222656 142.6875 18.734375 143.773438 23.242188 C 143.769531 23.8125 144.136719 24.28125 144.589844 24.289062 L 152.765625 24.40625 C 153.0625 24.410156 153.335938 24.214844 153.484375 23.894531 Z M 145.472656 23.777344 "/>
</g>
</defs>
<g id="surface1">
<path style=" stroke:none;fill-rule:nonzero;fill:rgb(90.196078%,90.196078%,90.196078%);fill-opacity:1;" d="M 26.550781 194.25 L 361.328125 194.25 L 361.328125 204.527344 L 26.550781 204.527344 Z M 26.550781 194.25 "/>
<path style=" stroke:none;fill-rule:nonzero;fill:rgb(24.705882%,23.921569%,33.72549%);fill-opacity:1;" d="M 36.761719 189.601562 C 37.582031 188.5625 38.09375 187.140625 38.09375 185.558594 L 38.09375 161.011719 C 38.09375 159.414062 37.574219 157.972656 36.746094 156.925781 C 36.3125 156.382812 35.785156 155.949219 35.210938 155.652344 C 34.671875 155.386719 34.089844 155.234375 33.476562 155.234375 C 30.925781 155.234375 28.859375 157.820312 28.859375 161.011719 L 28.859375 185.558594 C 28.859375 187.003906 29.289062 188.324219 29.988281 189.335938 C 27.949219 190.65625 26.550781 193.316406 26.550781 196.390625 L 39.828125 196.390625 C 39.828125 193.511719 38.597656 190.996094 36.761719 189.601562 Z M 36.761719 189.601562 "/>
<path style=" stroke:none;fill-rule:nonzero;fill:rgb(24.705882%,23.921569%,33.72549%);fill-opacity:1;" d="M 358.015625 188.691406 C 358.984375 187.632812 359.597656 186.082031 359.597656 184.347656 L 359.597656 159.800781 C 359.597656 156.609375 357.53125 154.023438 354.976562 154.023438 C 354.367188 154.023438 353.785156 154.175781 353.246094 154.441406 C 352.667969 154.738281 352.144531 155.171875 351.710938 155.714844 C 350.878906 156.761719 350.359375 158.203125 350.359375 159.800781 L 350.359375 184.347656 C 350.359375 185.960938 350.898438 187.410156 351.75 188.457031 C 349.570312 189.714844 348.050781 192.46875 348.050781 195.667969 L 361.328125 195.667969 C 361.328125 192.65625 359.988281 190.039062 358.015625 188.691406 Z M 358.015625 188.691406 "/>
<path style=" stroke:none;fill-rule:nonzero;fill:rgb(90.196078%,90.196078%,90.196078%);fill-opacity:1;" d="M 26.550781 203.882812 L 34.765625 203.882812 L 34.765625 211.550781 L 26.550781 211.550781 Z M 26.550781 203.882812 "/>
<path style=" stroke:none;fill-rule:nonzero;fill:rgb(90.196078%,90.196078%,90.196078%);fill-opacity:1;" d="M 39.355469 211.550781 L 30.65625 211.550781 L 30.273438 210.109375 L 28.796875 204.527344 L 28.757812 204.375 L 29.875 203.882812 L 36.507812 200.976562 L 37.460938 204.527344 L 38.960938 210.109375 Z M 39.355469 211.550781 "/>
<path style=" stroke:none;fill-rule:nonzero;fill:rgb(90.196078%,90.196078%,90.196078%);fill-opacity:1;" d="M 359.121094 204.375 L 359.082031 204.527344 L 357.605469 210.109375 L 357.222656 211.550781 L 348.523438 211.550781 L 348.917969 210.109375 L 350.417969 204.527344 L 351.371094 200.976562 L 358.003906 203.882812 Z M 359.121094 204.375 "/>
<path style=" stroke:none;fill-rule:nonzero;fill:rgb(90.196078%,90.196078%,90.196078%);fill-opacity:1;" d="M 353.113281 203.882812 L 361.328125 203.882812 L 361.328125 211.550781 L 353.113281 211.550781 Z M 353.113281 203.882812 "/>
<path style=" stroke:none;fill-rule:nonzero;fill:rgb(24.705882%,23.921569%,33.72549%);fill-opacity:1;" d="M 42.710938 0 L 196.25 0 L 196.25 74.367188 L 42.710938 74.367188 Z M 42.710938 0 "/>
<path style=" stroke:none;fill-rule:nonzero;fill:rgb(24.705882%,23.921569%,33.72549%);fill-opacity:1;" d="M 42.710938 0 L 196.25 0 L 196.25 74.367188 L 42.710938 74.367188 Z M 42.710938 0 "/>
<path style=" stroke:none;fill-rule:nonzero;fill:rgb(100%,100%,100%);fill-opacity:1;" d="M 45.023438 0 L 45.023438 71.480469 L 161.265625 71.480469 C 179.3125 71.480469 193.9375 53.179688 193.9375 30.609375 L 193.9375 0 Z M 45.023438 0 "/>
<path style=" stroke:none;fill-rule:nonzero;fill:rgb(24.705882%,23.921569%,33.72549%);fill-opacity:1;" d="M 386.902344 0 L 13.097656 0 C 5.875 0 0 7.351562 0 16.382812 L 0 195.167969 C 0 204.203125 5.875 211.550781 13.097656 211.550781 L 386.902344 211.550781 C 394.125 211.550781 400 204.203125 400 195.167969 L 400 16.382812 C 400 7.351562 394.125 0 386.902344 0 Z M 398.84375 195.167969 C 398.84375 203.421875 393.5 210.109375 386.902344 210.109375 L 13.097656 210.109375 C 6.5 210.109375 1.15625 203.421875 1.15625 195.167969 L 1.15625 16.382812 C 1.15625 8.128906 6.5 1.445312 13.097656 1.445312 L 308.988281 1.445312 C 358.613281 1.445312 398.84375 51.769531 398.84375 113.847656 Z M 398.84375 195.167969 "/>
<path style=" stroke:none;fill-rule:nonzero;fill:rgb(18.431373%,18.039216%,25.490196%);fill-opacity:1;" d="M 208.582031 151.070312 L 187.152344 151.070312 C 186.523438 151.070312 186.015625 151.710938 186.015625 152.503906 L 186.015625 194.851562 L 209.730469 194.851562 L 209.730469 152.503906 C 209.730469 151.710938 209.21875 151.070312 208.582031 151.070312 Z M 200.472656 171.972656 C 200.472656 172.6875 200.28125 173.335938 199.960938 173.871094 C 199.496094 174.636719 198.765625 175.132812 197.9375 175.132812 C 197.121094 175.132812 196.386719 174.636719 195.925781 173.871094 C 195.601562 173.335938 195.410156 172.6875 195.410156 171.972656 L 195.410156 167.054688 C 195.421875 165.328125 196.554688 163.921875 197.9375 163.921875 C 199.324219 163.921875 200.460938 165.328125 200.472656 167.054688 Z M 200.472656 171.972656 "/>
<path style=" stroke:none;fill-rule:nonzero;fill:rgb(24.705882%,23.921569%,33.72549%);fill-opacity:1;" d="M 185.9375 193.5 L 185.9375 197.582031 C 185.9375 198.023438 186.222656 198.382812 186.574219 198.382812 L 209.164062 198.382812 C 209.511719 198.382812 209.800781 198.023438 209.800781 197.582031 L 209.800781 193.5 Z M 185.9375 193.5 "/>
<path style=" stroke:none;fill-rule:nonzero;fill:rgb(24.705882%,23.921569%,33.72549%);fill-opacity:1;" d="M 244.074219 84.980469 L 152.460938 84.980469 C 150.828125 84.980469 149.496094 86.648438 149.496094 88.691406 L 149.496094 166.023438 C 149.496094 168.070312 150.828125 169.738281 152.460938 169.738281 L 244.074219 169.738281 C 245.707031 169.738281 247.042969 168.070312 247.042969 166.023438 L 247.042969 88.691406 C 247.042969 86.648438 245.707031 84.980469 244.074219 84.980469 Z M 244.074219 84.980469 "/>
<path style=" stroke:none;fill-rule:nonzero;fill:rgb(100%,100%,100%);fill-opacity:1;" d="M 243.300781 87.660156 L 153.230469 87.660156 C 152.351562 87.660156 151.640625 88.550781 151.640625 89.644531 L 151.640625 142.882812 C 151.640625 156.175781 160.335938 167.054688 170.964844 167.054688 L 243.308594 167.054688 C 244.179688 167.054688 244.894531 166.160156 244.894531 165.070312 L 244.894531 89.652344 C 244.894531 88.558594 244.179688 87.660156 243.300781 87.660156 Z M 243.300781 87.660156 "/>
<path style=" stroke:none;fill-rule:nonzero;fill:rgb(24.705882%,23.921569%,33.72549%);fill-opacity:1;" d="M 226.722656 198.316406 L 226.039062 194.253906 L 225.894531 193.378906 C 225.800781 192.808594 225.398438 192.398438 224.929688 192.398438 L 173 192.398438 C 172.535156 192.398438 172.132812 192.808594 172.035156 193.378906 L 171.890625 194.253906 L 171.203125 198.316406 C 171.144531 198.6875 171.214844 199.0625 171.40625 199.351562 C 171.589844 199.640625 171.871094 199.804688 172.167969 199.804688 L 225.761719 199.804688 C 226.0625 199.804688 226.335938 199.640625 226.527344 199.351562 C 226.710938 199.0625 226.789062 198.6875 226.722656 198.316406 Z M 226.722656 198.316406 "/>
<path style=" stroke:none;fill-rule:nonzero;fill:rgb(90.196078%,90.196078%,90.196078%);fill-opacity:1;" d="M 173.59375 193.289062 L 174.820312 193.289062 C 174.9375 193.289062 175.03125 193.40625 175.03125 193.554688 L 175.03125 194.261719 C 175.03125 194.40625 174.9375 194.527344 174.820312 194.527344 L 173.59375 194.527344 C 173.476562 194.527344 173.382812 194.40625 173.382812 194.261719 L 173.382812 193.554688 C 173.382812 193.40625 173.476562 193.289062 173.59375 193.289062 Z M 173.59375 193.289062 "/>
<path style=" stroke:none;fill-rule:nonzero;fill:rgb(90.196078%,90.196078%,90.196078%);fill-opacity:1;" d="M 223.074219 195.351562 L 224.296875 195.351562 C 224.414062 195.351562 224.511719 195.472656 224.511719 195.617188 L 224.511719 196.324219 C 224.511719 196.472656 224.414062 196.589844 224.296875 196.589844 L 223.074219 196.589844 C 222.957031 196.589844 222.859375 196.472656 222.859375 196.324219 L 222.859375 195.617188 C 222.859375 195.472656 222.957031 195.351562 223.074219 195.351562 Z M 223.074219 195.351562 "/>
<path style=" stroke:none;fill-rule:nonzero;fill:rgb(90.196078%,90.196078%,90.196078%);fill-opacity:1;" d="M 189.402344 197.828125 L 202.179688 197.828125 C 202.296875 197.828125 202.394531 197.949219 202.394531 198.097656 L 202.394531 198.800781 C 202.394531 198.949219 202.296875 199.070312 202.179688 199.070312 L 189.402344 199.070312 C 189.285156 199.070312 189.1875 198.949219 189.1875 198.800781 L 189.1875 198.097656 C 189.1875 197.949219 189.285156 197.828125 189.402344 197.828125 Z M 189.402344 197.828125 "/>
<path style=" stroke:none;fill-rule:nonzero;fill:rgb(94.901961%,94.901961%,94.901961%);fill-opacity:1;" d="M 54.058594 140.71875 C 47.132812 111.984375 46.699219 83.207031 54.867188 54.378906 C 54.902344 50.742188 57.289062 47.828125 60.195312 47.867188 L 112.320312 48.628906 C 115.230469 48.675781 117.558594 51.65625 117.527344 55.296875 L 116.722656 141.632812 C 116.683594 145.273438 114.300781 148.1875 111.390625 148.148438 L 59.265625 147.386719 C 56.355469 147.339844 54.027344 144.355469 54.058594 140.71875 Z M 54.058594 140.71875 "/>
<use xlink:href="#surface5" mask="url(#mask0)"/>
<path style=" stroke:none;fill-rule:nonzero;fill:rgb(100%,100%,100%);fill-opacity:1;" d="M 103.269531 96.867188 L 68.335938 96.476562 C 67.179688 96.460938 66.25 95.277344 66.261719 93.828125 C 66.273438 92.382812 67.21875 91.222656 68.375 91.234375 L 103.304688 91.625 C 104.464844 91.640625 105.390625 92.828125 105.375 94.277344 C 105.363281 95.71875 104.421875 96.875 103.269531 96.867188 Z M 103.269531 96.867188 "/>
<path style=" stroke:none;fill-rule:nonzero;fill:rgb(100%,100%,100%);fill-opacity:1;" d="M 76.125 82.183594 L 68.441406 82.097656 C 67.28125 82.089844 66.347656 80.910156 66.355469 79.460938 C 66.363281 78.015625 67.308594 76.847656 68.464844 76.855469 L 68.476562 76.855469 L 76.164062 76.941406 C 77.320312 76.960938 78.246094 78.148438 78.234375 79.59375 C 78.21875 81.035156 77.277344 82.195312 76.125 82.183594 Z M 76.125 82.183594 "/>
<path style=" stroke:none;fill-rule:nonzero;fill:rgb(100%,100%,100%);fill-opacity:1;" d="M 103.105469 119.917969 L 68.171875 119.53125 C 67.015625 119.511719 66.089844 118.324219 66.101562 116.875 C 66.117188 115.433594 67.058594 114.277344 68.210938 114.285156 L 103.140625 114.675781 C 104.300781 114.683594 105.234375 115.863281 105.226562 117.3125 C 105.21875 118.761719 104.277344 119.925781 103.117188 119.917969 Z M 103.105469 119.917969 "/>
<path style=" stroke:none;fill-rule:nonzero;fill:rgb(100%,100%,100%);fill-opacity:1;" d="M 103.1875 108.394531 L 68.253906 108.003906 C 67.097656 107.992188 66.167969 106.808594 66.175781 105.363281 C 66.183594 103.914062 67.128906 102.75 68.289062 102.761719 L 68.292969 102.761719 L 103.222656 103.148438 C 104.382812 103.167969 105.308594 104.355469 105.292969 105.804688 C 105.28125 107.246094 104.339844 108.402344 103.1875 108.394531 Z M 103.1875 108.394531 "/>
<path style=" stroke:none;fill-rule:nonzero;fill:rgb(24.705882%,23.921569%,33.72549%);fill-opacity:1;" d="M 71.773438 55.640625 C 71.773438 58.757812 69.753906 61.285156 67.261719 61.285156 C 64.769531 61.285156 62.75 58.757812 62.75 55.640625 C 62.75 52.523438 64.769531 49.996094 67.261719 49.996094 C 69.753906 49.996094 71.773438 52.523438 71.773438 55.640625 Z M 71.773438 55.640625 "/>
<path style=" stroke:none;fill-rule:nonzero;fill:rgb(24.705882%,23.921569%,33.72549%);fill-opacity:1;" d="M 109.761719 57.085938 C 109.761719 60.203125 107.742188 62.726562 105.25 62.726562 C 102.757812 62.726562 100.738281 60.203125 100.738281 57.085938 C 100.738281 53.96875 102.757812 51.441406 105.25 51.441406 C 107.742188 51.441406 109.761719 53.96875 109.761719 57.085938 Z M 109.761719 57.085938 "/>
<path style=" stroke:none;fill-rule:nonzero;fill:rgb(94.901961%,94.901961%,94.901961%);fill-opacity:1;" d="M 159.734375 95.335938 C 159.734375 93.980469 158.878906 92.882812 157.820312 92.882812 C 156.761719 92.882812 155.902344 93.980469 155.902344 95.335938 C 155.902344 96.6875 156.761719 97.785156 157.820312 97.785156 C 158.878906 97.785156 159.734375 96.6875 159.734375 95.335938 Z M 159.734375 95.335938 "/>
<path style=" stroke:none;fill-rule:nonzero;fill:rgb(94.901961%,94.901961%,94.901961%);fill-opacity:1;" d="M 166.359375 95.335938 C 166.359375 93.980469 165.5 92.882812 164.441406 92.882812 C 163.382812 92.882812 162.523438 93.980469 162.523438 95.335938 C 162.523438 96.6875 163.382812 97.785156 164.441406 97.785156 C 165.5 97.785156 166.359375 96.6875 166.359375 95.335938 Z M 166.359375 95.335938 "/>
<path style=" stroke:none;fill-rule:nonzero;fill:rgb(94.901961%,94.901961%,94.901961%);fill-opacity:1;" d="M 172.980469 95.335938 C 172.980469 93.980469 172.121094 92.882812 171.0625 92.882812 C 170.003906 92.882812 169.144531 93.980469 169.144531 95.335938 C 169.144531 96.6875 170.003906 97.785156 171.0625 97.785156 C 172.121094 97.785156 172.980469 96.6875 172.980469 95.335938 Z M 172.980469 95.335938 "/>
<path style=" stroke:none;fill-rule:nonzero;fill:rgb(94.901961%,94.901961%,94.901961%);fill-opacity:1;" d="M 178.613281 97.269531 C 178.554688 97.269531 178.496094 97.242188 178.449219 97.1875 L 177.15625 95.53125 C 177.070312 95.421875 177.070312 95.246094 177.15625 95.136719 L 178.449219 93.480469 C 178.539062 93.371094 178.683594 93.367188 178.769531 93.476562 C 178.859375 93.585938 178.863281 93.765625 178.773438 93.878906 L 177.636719 95.335938 L 178.773438 96.789062 C 178.863281 96.902344 178.859375 97.082031 178.769531 97.191406 C 178.726562 97.246094 178.671875 97.269531 178.613281 97.269531 Z M 178.613281 97.269531 "/>
<path style=" stroke:none;fill-rule:nonzero;fill:rgb(94.901961%,94.901961%,94.901961%);fill-opacity:1;" d="M 180.785156 97.269531 C 180.730469 97.269531 180.671875 97.246094 180.628906 97.191406 C 180.539062 97.082031 180.535156 96.902344 180.625 96.789062 L 181.761719 95.335938 L 180.625 93.878906 C 180.535156 93.765625 180.539062 93.585938 180.628906 93.476562 C 180.71875 93.367188 180.859375 93.371094 180.949219 93.480469 L 182.242188 95.136719 C 182.328125 95.246094 182.328125 95.421875 182.242188 95.53125 L 180.949219 97.1875 C 180.902344 97.242188 180.84375 97.269531 180.785156 97.269531 Z M 180.785156 97.269531 "/>
<path style=" stroke:none;fill-rule:nonzero;fill:rgb(94.901961%,94.901961%,94.901961%);fill-opacity:1;" d="M 233.488281 93.167969 L 231.082031 93.167969 C 230.808594 93.167969 230.585938 93.445312 230.585938 93.789062 L 230.585938 96.796875 C 230.585938 97.140625 230.808594 97.417969 231.082031 97.417969 L 233.488281 97.417969 C 233.761719 97.417969 233.984375 97.140625 233.984375 96.796875 L 233.984375 93.789062 C 233.984375 93.445312 233.761719 93.167969 233.488281 93.167969 Z M 233.488281 93.167969 "/>
<path style=" stroke:none;fill-rule:nonzero;fill:rgb(94.901961%,94.901961%,94.901961%);fill-opacity:1;" d="M 227.59375 93.167969 L 225.1875 93.167969 C 224.914062 93.167969 224.691406 93.445312 224.691406 93.789062 L 224.691406 96.796875 C 224.691406 97.140625 224.914062 97.417969 225.1875 97.417969 L 227.59375 97.417969 C 227.867188 97.417969 228.09375 97.140625 228.09375 96.796875 L 228.09375 93.789062 C 228.09375 93.445312 227.867188 93.167969 227.59375 93.167969 Z M 227.59375 93.167969 "/>
<path style=" stroke:none;fill-rule:nonzero;fill:rgb(94.901961%,94.901961%,94.901961%);fill-opacity:1;" d="M 239.039062 93.308594 L 236.632812 93.308594 C 236.359375 93.308594 236.136719 93.585938 236.136719 93.929688 L 236.136719 96.941406 C 236.136719 97.285156 236.359375 97.5625 236.632812 97.5625 L 239.039062 97.5625 C 239.3125 97.5625 239.539062 97.285156 239.539062 96.941406 L 239.539062 93.929688 C 239.539062 93.585938 239.3125 93.308594 239.039062 93.308594 Z M 239.039062 93.308594 "/>
<path style=" stroke:none;fill-rule:nonzero;fill:rgb(94.901961%,94.901961%,94.901961%);fill-opacity:1;" d="M 207.324219 94.453125 L 198.074219 94.453125 C 197.738281 94.453125 197.46875 94.792969 197.46875 95.210938 C 197.46875 95.628906 197.738281 95.96875 198.074219 95.96875 L 207.324219 95.96875 C 207.660156 95.96875 207.929688 95.628906 207.929688 95.210938 C 207.929688 94.792969 207.660156 94.453125 207.324219 94.453125 Z M 207.324219 94.453125 "/>
<path style=" stroke:none;fill-rule:nonzero;fill:rgb(94.901961%,94.901961%,94.901961%);fill-opacity:1;" d="M 174.945312 23.242188 C 173.859375 18.734375 173.789062 14.222656 175.070312 9.703125 C 175.074219 9.132812 175.449219 8.675781 175.90625 8.679688 L 184.082031 8.800781 C 184.535156 8.808594 184.902344 9.277344 184.898438 9.847656 L 184.769531 23.386719 C 184.765625 23.957031 184.390625 24.414062 183.933594 24.40625 L 175.761719 24.289062 C 175.304688 24.28125 174.9375 23.8125 174.945312 23.242188 Z M 174.945312 23.242188 "/>
<use xlink:href="#surface8" mask="url(#mask1)"/>
<path style=" stroke:none;fill-rule:nonzero;fill:rgb(94.901961%,94.901961%,94.901961%);fill-opacity:1;" d="M 157.628906 23.242188 C 156.542969 18.734375 156.472656 14.222656 157.753906 9.703125 C 157.761719 9.132812 158.132812 8.675781 158.589844 8.679688 L 166.765625 8.800781 C 167.21875 8.808594 167.585938 9.277344 167.582031 9.847656 L 167.453125 23.386719 C 167.449219 23.957031 167.074219 24.414062 166.617188 24.40625 L 158.445312 24.289062 C 157.988281 24.28125 157.621094 23.8125 157.628906 23.242188 Z M 157.628906 23.242188 "/>
<use xlink:href="#surface11" mask="url(#mask2)"/>
<path style=" stroke:none;fill-rule:nonzero;fill:rgb(94.901961%,94.901961%,94.901961%);fill-opacity:1;" d="M 143.773438 23.242188 C 142.6875 18.734375 142.621094 14.222656 143.902344 9.703125 C 143.90625 9.132812 144.28125 8.675781 144.738281 8.679688 L 152.910156 8.800781 C 153.367188 8.808594 153.734375 9.277344 153.726562 9.847656 L 153.601562 23.386719 C 153.597656 23.957031 153.222656 24.414062 152.765625 24.40625 L 144.589844 24.289062 C 144.136719 24.28125 143.769531 23.8125 143.773438 23.242188 Z M 143.773438 23.242188 "/>
<use xlink:href="#surface14" mask="url(#mask3)"/>
<path style=" stroke:none;fill-rule:nonzero;fill:rgb(24.705882%,23.921569%,33.72549%);fill-opacity:1;" d="M 150.996094 11.785156 C 150.996094 12.882812 150.285156 13.769531 149.410156 13.769531 C 148.53125 13.769531 147.820312 12.882812 147.820312 11.785156 C 147.820312 10.6875 148.53125 9.800781 149.410156 9.800781 C 150.285156 9.800781 150.996094 10.6875 150.996094 11.785156 Z M 150.996094 11.785156 "/>
<path style=" stroke:none;fill-rule:nonzero;fill:rgb(24.705882%,23.921569%,33.72549%);fill-opacity:1;" d="M 164.273438 11.785156 C 164.273438 12.882812 163.5625 13.769531 162.683594 13.769531 C 161.808594 13.769531 161.097656 12.882812 161.097656 11.785156 C 161.097656 10.6875 161.808594 9.800781 162.683594 9.800781 C 163.5625 9.800781 164.273438 10.6875 164.273438 11.785156 Z M 164.273438 11.785156 "/>
<path style=" stroke:none;fill-rule:nonzero;fill:rgb(24.705882%,23.921569%,33.72549%);fill-opacity:1;" d="M 181.011719 11.785156 C 181.011719 12.882812 180.300781 13.769531 179.421875 13.769531 C 178.546875 13.769531 177.835938 12.882812 177.835938 11.785156 C 177.835938 10.6875 178.546875 9.800781 179.421875 9.800781 C 180.300781 9.800781 181.011719 10.6875 181.011719 11.785156 Z M 181.011719 11.785156 "/>
<path style=" stroke:none;fill-rule:nonzero;fill:rgb(0%,0%,0%);fill-opacity:1;" d="M 36.941406 161.011719 L 36.941406 185.558594 C 36.941406 187.15625 36.425781 188.597656 35.589844 189.640625 C 35.027344 190.347656 34.054688 189.816406 34.054688 188.816406 L 34.054688 157.742188 C 34.054688 156.753906 35.015625 156.210938 35.578125 156.90625 L 35.589844 156.925781 C 36.421875 157.972656 36.941406 159.414062 36.941406 161.011719 Z M 36.941406 161.011719 "/>
<path style=" stroke:none;fill-rule:nonzero;fill:rgb(0%,0%,0%);fill-opacity:1;" d="M 351.515625 159.800781 L 351.515625 184.347656 C 351.515625 185.945312 352.03125 187.386719 352.867188 188.429688 C 353.429688 189.136719 354.402344 188.605469 354.402344 187.605469 L 354.402344 156.53125 C 354.402344 155.542969 353.441406 155 352.878906 155.695312 L 352.867188 155.714844 C 352.035156 156.761719 351.515625 158.203125 351.515625 159.800781 Z M 351.515625 159.800781 "/>
<path style=" stroke:none;fill-rule:nonzero;fill:rgb(24.705882%,23.921569%,33.72549%);fill-opacity:1;" d="M 250.503906 21.660156 L 290.332031 21.660156 L 290.332031 80.867188 L 250.503906 80.867188 Z M 250.503906 21.660156 "/>
<path style=" stroke:none;fill-rule:nonzero;fill:rgb(100%,100%,100%);fill-opacity:1;" d="M 252.8125 77.976562 L 288.023438 77.976562 L 288.023438 24.546875 L 252.8125 24.546875 Z M 252.8125 77.976562 "/>
<path style=" stroke:none;fill-rule:nonzero;fill:rgb(24.705882%,23.921569%,33.72549%);fill-opacity:1;" d="M 270.324219 28.882812 C 267.734375 28.882812 265.304688 29.761719 263.222656 31.292969 C 260.253906 33.472656 257.980469 36.976562 256.921875 41.15625 C 256.503906 42.832031 256.277344 44.605469 256.277344 46.453125 L 256.277344 73.644531 L 284.558594 73.644531 L 284.558594 28.882812 Z M 270.324219 28.882812 "/>
<path style=" stroke:none;fill-rule:nonzero;fill:rgb(0%,0%,0%);fill-opacity:1;" d="M 277.738281 73.625 L 261.472656 73.625 C 262.261719 70.835938 263.9375 68.566406 266.085938 67.375 C 267.160156 66.769531 268.351562 66.429688 269.605469 66.429688 C 270.507812 66.429688 271.382812 66.605469 272.199219 66.933594 C 274.78125 67.949219 276.839844 70.445312 277.738281 73.625 Z M 277.738281 73.625 "/>
<path style=" stroke:none;fill-rule:nonzero;fill:rgb(0%,0%,0%);fill-opacity:1;" d="M 258.585938 62.09375 C 257.789062 62.09375 257.011719 62.230469 256.277344 62.484375 L 256.277344 73.644531 L 267.222656 73.644531 C 267.238281 73.40625 267.242188 73.167969 267.242188 72.925781 C 267.242188 70.894531 266.792969 68.988281 266.019531 67.371094 C 264.503906 64.210938 261.742188 62.09375 258.585938 62.09375 Z M 258.585938 62.09375 "/>
<path style=" stroke:none;fill-rule:nonzero;fill:rgb(0%,0%,0%);fill-opacity:1;" d="M 284.558594 41.136719 L 284.558594 31.78125 C 283.121094 30.429688 281.328125 29.621094 279.382812 29.621094 C 276.386719 29.621094 273.746094 31.535156 272.199219 34.445312 C 271.382812 34.113281 270.507812 33.941406 269.605469 33.941406 C 268.351562 33.941406 267.160156 34.277344 266.085938 34.882812 C 266.066406 34.890625 266.050781 34.90625 266.035156 34.914062 C 266.03125 34.902344 266.027344 34.890625 266.019531 34.882812 C 265.320312 33.429688 264.363281 32.195312 263.222656 31.292969 C 260.253906 33.472656 257.980469 36.976562 256.921875 41.15625 L 261.476562 41.15625 C 262.929688 46.066406 264.429688 49.195312 265.96875 50.859375 C 262.785156 52.71875 261.566406 57.65625 263.230469 61.539062 C 266.511719 69.179688 269.066406 70.765625 271.253906 69.296875 C 270.933594 70.425781 270.753906 71.640625 270.753906 72.90625 C 270.753906 73.152344 270.761719 73.386719 270.777344 73.625 L 284.558594 73.625 L 284.558594 64.273438 C 283.121094 62.917969 281.328125 62.113281 279.382812 62.113281 C 277.8125 62.113281 276.339844 62.644531 275.074219 63.5625 L 275.097656 63.503906 C 276.878906 59.539062 280.191406 57.039062 283.824219 57.039062 L 284.558594 57.039062 L 284.558594 47.6875 C 283.121094 46.332031 281.328125 45.527344 279.382812 45.527344 C 277.550781 45.527344 275.855469 46.246094 274.460938 47.464844 L 274.515625 47.375 C 276.9375 43.480469 280.617188 41.136719 284.558594 41.136719 Z M 284.558594 41.136719 "/>
<path style=" stroke:none;fill-rule:nonzero;fill:rgb(24.705882%,23.921569%,33.72549%);fill-opacity:1;" d="M 268.976562 32.492188 L 269.550781 32.492188 L 269.550781 73.644531 L 268.976562 73.644531 Z M 268.976562 32.492188 "/>
<path style=" stroke:none;fill-rule:nonzero;fill:rgb(100%,71.372549%,71.372549%);fill-opacity:1;" d="M 292.742188 387.480469 L 288.363281 387.433594 L 286.425781 365.816406 L 292.890625 365.882812 Z M 292.742188 387.480469 "/>
<path style=" stroke:none;fill-rule:nonzero;fill:rgb(18.431373%,18.039216%,25.490196%);fill-opacity:1;" d="M 278.71875 396.191406 C 278.710938 397.539062 279.578125 398.648438 280.660156 398.660156 L 289.363281 398.75 L 290.890625 394.886719 L 291.449219 398.769531 L 294.734375 398.808594 L 293.902344 384.957031 L 292.761719 384.859375 L 288.101562 384.457031 L 286.597656 384.332031 L 286.570312 388.25 L 279.578125 394.183594 C 279.042969 394.636719 278.722656 395.386719 278.71875 396.191406 Z M 278.71875 396.191406 "/>
<path style=" stroke:none;fill-rule:nonzero;fill:rgb(100%,71.372549%,71.372549%);fill-opacity:1;" d="M 340.632812 387.480469 L 336.253906 387.433594 L 334.316406 365.816406 L 340.777344 365.882812 Z M 340.632812 387.480469 "/>
<path style=" stroke:none;fill-rule:nonzero;fill:rgb(18.431373%,18.039216%,25.490196%);fill-opacity:1;" d="M 326.609375 396.191406 C 326.597656 397.539062 327.46875 398.648438 328.550781 398.660156 L 337.253906 398.75 L 338.777344 394.886719 L 339.339844 398.769531 L 342.625 398.808594 L 341.792969 384.957031 L 340.652344 384.859375 L 335.988281 384.457031 L 334.484375 384.332031 L 334.460938 388.25 L 327.464844 394.183594 C 326.933594 394.636719 326.613281 395.386719 326.609375 396.191406 Z M 326.609375 396.191406 "/>
<path style=" stroke:none;fill-rule:nonzero;fill:rgb(100%,71.372549%,71.372549%);fill-opacity:1;" d="M 268.4375 75.976562 C 270.277344 78.125 270.105469 81.96875 268.078125 83.832031 L 273.074219 108.808594 L 267.890625 112.234375 L 262.132812 82.515625 C 261.121094 80.558594 261.265625 77.925781 262.605469 76.164062 C 264.175781 74.097656 266.785156 74.015625 268.4375 75.976562 Z M 268.4375 75.976562 "/>
<path style=" stroke:none;fill-rule:nonzero;fill:rgb(18.431373%,18.039216%,25.490196%);fill-opacity:1;" d="M 294.105469 216.960938 L 330.625 216.960938 C 330.625 216.960938 341.777344 237.410156 339.234375 256.492188 L 333.933594 312.953125 L 345.164062 378.953125 L 334.359375 380.28125 L 315.710938 312.953125 L 313.167969 272.132812 L 308.507812 316.132812 L 294.105469 378.292969 L 283.714844 378.425781 L 289.859375 315.605469 L 292.40625 256.410156 C 292.40625 256.410156 293.964844 252.3125 292.652344 250.691406 C 291.34375 249.070312 292.847656 246.195312 292.847656 246.195312 C 292.847656 246.195312 294.855469 242.21875 293.097656 240.34375 C 291.34375 238.46875 294.105469 216.960938 294.105469 216.960938 Z M 294.105469 216.960938 "/>
<path style=" stroke:none;fill-rule:nonzero;fill:rgb(0%,0%,0%);fill-opacity:1;" d="M 343.433594 233.699219 C 343.433594 233.699219 310.378906 222.566406 311.648438 235.289062 C 312.210938 240.921875 293.773438 237.359375 288.082031 236.523438 L 293.636719 206.394531 L 284.425781 235.902344 C 282.746094 235.574219 281.703125 235.320312 281.703125 235.320312 L 293.847656 198.179688 C 293.847656 198.179688 295.121094 162.128906 292.515625 153.292969 C 289.90625 144.453125 296.390625 140.925781 296.390625 140.925781 C 302.796875 134.980469 305.855469 129.109375 303.136719 123.359375 L 317.160156 124.871094 L 318.429688 133.503906 L 330.355469 140.765625 L 324.542969 183.757812 C 324.542969 183.757812 323.789062 184.804688 324.289062 185.660156 C 324.785156 186.515625 324.875 187.199219 323.984375 187.917969 C 323.09375 188.636719 323.507812 191.433594 323.507812 191.433594 C 323.507812 191.433594 323.550781 193.167969 324.378906 193.285156 C 325.210938 193.40625 324.929688 194.449219 324.929688 194.449219 C 324.929688 194.449219 324.875 196.550781 325.679688 196.039062 C 326.21875 195.695312 338.214844 224.546875 339.128906 224.085938 C 340.042969 223.625 339.726562 227.027344 340.523438 227.183594 C 341.316406 227.335938 341.320312 228.964844 341.664062 229.730469 C 342.753906 232.167969 343.433594 233.699219 343.433594 233.699219 Z M 343.433594 233.699219 "/>
<path style=" stroke:none;fill-rule:nonzero;fill:rgb(0%,0%,0%);fill-opacity:1;" d="M 305.976562 155.542969 L 307.417969 138.71875 L 288.613281 133.039062 L 269.730469 89.5 L 263.796875 92.683594 L 263.796875 100.105469 C 263.796875 100.105469 258.710938 106.464844 275.863281 136.730469 L 280.746094 145.164062 L 307.417969 160.832031 Z M 305.976562 155.542969 "/>
<path style=" stroke:none;fill-rule:nonzero;fill:rgb(100%,71.372549%,71.372549%);fill-opacity:1;" d="M 289.820312 55.445312 C 289.195312 58.492188 290.996094 61.617188 293.503906 61.820312 L 300.054688 86.226562 L 305.898438 85.621094 L 297.949219 56.703125 C 297.957031 54.375 296.703125 52.253906 294.816406 51.671875 C 292.601562 50.988281 290.367188 52.679688 289.820312 55.445312 Z M 289.820312 55.445312 "/>
<path style=" stroke:none;fill-rule:nonzero;fill:rgb(0%,0%,0%);fill-opacity:1;" d="M 329.972656 146.816406 C 334.765625 142.890625 335.355469 134.386719 331.175781 129.488281 L 311.007812 105.855469 C 311.007812 105.855469 311.769531 68.832031 303.933594 68.738281 L 302.238281 62.117188 L 293.121094 67.558594 L 294.230469 73.03125 C 294.230469 73.03125 294.828125 95.679688 300.183594 102.433594 C 300.277344 111.976562 303.476562 114.503906 303.476562 114.503906 Z M 329.972656 146.816406 "/>
<path style=" stroke:none;fill-rule:nonzero;fill:rgb(100%,71.372549%,71.372549%);fill-opacity:1;" d="M 323.875 107.667969 C 323.875 115.96875 318.496094 122.699219 311.859375 122.699219 C 305.222656 122.699219 299.84375 115.96875 299.84375 107.667969 C 299.84375 99.367188 305.222656 92.636719 311.859375 92.636719 C 318.496094 92.636719 323.875 99.367188 323.875 107.667969 Z M 323.875 107.667969 "/>
<path style=" stroke:none;fill-rule:nonzero;fill:rgb(18.431373%,18.039216%,25.490196%);fill-opacity:1;" d="M 341.054688 148.335938 C 340.96875 150.496094 340.140625 152.570312 338.613281 153.558594 C 338.128906 153.863281 337.621094 154.09375 337.09375 154.257812 C 337.078125 154.042969 337.046875 153.832031 337.019531 153.625 C 336.539062 150.070312 335.351562 146.683594 333.613281 143.824219 C 332.789062 142.46875 335.074219 150.164062 335.652344 154.496094 C 335.125 153.183594 332.453125 144.75 332.28125 144.433594 C 332.28125 144.445312 332.292969 144.488281 332.316406 144.582031 C 333.179688 147.855469 333.574219 151.320312 333.511719 154.769531 C 330.160156 160.742188 327.246094 162.351562 324.5625 161.679688 C 325.371094 158.953125 325.285156 155.789062 324.195312 153.203125 C 323.894531 155.746094 322.835938 158.105469 321.324219 159.839844 C 320.054688 158.734375 318.820312 157.269531 317.589844 155.71875 C 319.523438 152.808594 320.863281 149.289062 321.417969 145.574219 C 322.207031 140.367188 321.453125 134.816406 319.332031 130.230469 C 320.355469 139.535156 317.511719 149.320312 312.089844 155.789062 C 310.808594 155.542969 309.652344 154.90625 309.140625 153.480469 C 308.660156 152.136719 308.984375 150.546875 309.589844 149.289062 C 310.183594 148.035156 308.101562 141.960938 308.800781 140.792969 C 311.71875 135.925781 314.496094 133.585938 311.367188 128.929688 C 309.929688 126.785156 307.929688 125.140625 307.066406 122.554688 C 305.984375 119.296875 307.027344 115.578125 308.285156 112.433594 C 309.550781 109.277344 313.757812 110.75 310.941406 110.460938 C 306.097656 109.96875 308.210938 105.050781 307.148438 103.003906 C 306.554688 101.855469 305.089844 102.042969 303.992188 102.027344 C 303.605469 100.402344 303.0625 98.828125 302.382812 97.355469 C 302.554688 98.953125 302.617188 100.570312 302.570312 102.179688 C 301.695312 102.367188 300.269531 104.207031 299.511719 104.800781 L 299.234375 104.964844 C 298.167969 104.199219 298.328125 102.769531 298.320312 101.226562 C 298.308594 99.679688 295.929688 98.199219 296.589844 96.894531 C 298.335938 93.433594 297.773438 91.484375 301.019531 90.957031 C 304.261719 90.433594 307.28125 88.894531 309.675781 91.679688 C 311.984375 85.90625 320.972656 91.003906 323.144531 92.09375 C 325.3125 93.191406 327.0625 95.515625 327.800781 98.289062 C 329.519531 104.714844 328.648438 107.671875 331.609375 113.339844 C 334.144531 118.191406 337.730469 115.90625 339.410156 121.304688 C 340.464844 124.714844 339.207031 128.480469 338.085938 131.855469 C 336.96875 135.234375 334.652344 142.921875 337.539062 142.375 C 339.996094 141.898438 341.191406 144.957031 341.054688 148.335938 Z M 341.054688 148.335938 "/>
<path style=" stroke:none;fill-rule:nonzero;fill:rgb(94.901961%,94.901961%,94.901961%);fill-opacity:1;" d="M 352.394531 387.398438 C 353.585938 387.488281 354.246094 385.636719 353.34375 384.558594 L 353.253906 384.109375 C 353.265625 384.074219 353.277344 384.039062 353.289062 384.003906 C 354.496094 380.40625 358.582031 380.429688 359.777344 384.035156 C 360.839844 387.230469 362.191406 390.433594 362.523438 393.8125 C 362.671875 395.304688 362.605469 396.828125 362.339844 398.289062 C 364.828125 391.496094 366.136719 384.078125 366.136719 376.613281 C 366.136719 374.742188 366.054688 372.867188 365.886719 370.996094 C 365.75 369.464844 365.558594 367.945312 365.3125 366.4375 C 363.980469 358.296875 361.097656 350.542969 356.941406 344.0625 C 354.945312 342.699219 353.277344 340.5625 352.269531 338 C 351.910156 337.078125 351.625 336.085938 351.492188 335.074219 C 351.71875 335.109375 352.347656 330.777344 352.179688 330.511719 C 352.496094 329.910156 353.0625 329.613281 353.410156 329.023438 C 355.128906 326.105469 357.5 326.613281 358.738281 330.582031 C 361.382812 332.253906 361.410156 335.019531 359.785156 337.683594 C 358.753906 339.378906 358.613281 341.671875 357.707031 343.484375 C 357.800781 343.636719 357.898438 343.78125 357.988281 343.929688 C 359.699219 346.671875 361.175781 349.617188 362.421875 352.714844 C 362.070312 349.273438 362.589844 345.128906 363.476562 342.457031 C 364.488281 339.410156 366.378906 336.847656 368.042969 334.214844 C 370.042969 331.050781 374.148438 332.429688 374.5 336.441406 C 374.503906 336.476562 374.507812 336.515625 374.507812 336.554688 C 374.261719 336.730469 374.019531 336.917969 373.78125 337.113281 C 372.433594 338.230469 372.898438 340.847656 374.5 341.15625 L 374.535156 341.164062 C 374.445312 342.277344 374.292969 343.382812 374.070312 344.46875 C 376.207031 354.804688 371.59375 358.570312 365.007812 358.738281 C 364.859375 358.832031 364.71875 358.925781 364.574219 359.015625 C 365.242188 361.367188 365.773438 363.777344 366.167969 366.21875 C 366.523438 368.378906 366.769531 370.5625 366.90625 372.753906 C 367.078125 375.519531 367.0625 378.296875 366.878906 381.058594 L 366.890625 380.960938 C 367.363281 377.921875 368.683594 375.082031 370.597656 373.113281 C 373.453125 370.179688 377.484375 369.097656 380.566406 366.742188 C 382.046875 365.605469 383.949219 367.074219 383.6875 369.222656 L 383.675781 369.324219 C 383.21875 369.558594 382.769531 369.828125 382.339844 370.132812 C 382.089844 370.308594 381.847656 370.492188 381.613281 370.6875 C 380.261719 371.804688 380.726562 374.425781 382.328125 374.734375 L 382.363281 374.742188 C 382.390625 374.746094 382.414062 374.75 382.4375 374.753906 C 381.652344 377.089844 380.554688 379.257812 379.183594 381.128906 C 377.847656 390.152344 372.109375 391.007812 365.972656 388.378906 L 365.96875 388.378906 C 365.296875 392.035156 364.316406 395.609375 363.054688 399.011719 L 352.65625 399.011719 C 352.617188 398.867188 352.585938 398.71875 352.550781 398.574219 C 353.511719 398.648438 354.480469 398.578125 355.429688 398.359375 C 354.65625 397.175781 353.886719 395.980469 353.113281 394.796875 C 353.09375 394.773438 353.082031 394.75 353.066406 394.726562 C 352.675781 394.121094 352.277344 393.519531 351.886719 392.914062 C 351.863281 391.050781 352.039062 389.195312 352.394531 387.398438 Z M 352.394531 387.398438 "/>
<path style=" stroke:none;fill-rule:nonzero;fill:rgb(80%,80%,80%);fill-opacity:1;" d="M 236.171875 399.050781 C 236.171875 399.527344 236.476562 399.910156 236.859375 399.910156 L 383.058594 399.910156 C 383.4375 399.910156 383.742188 399.527344 383.742188 399.050781 C 383.742188 398.574219 383.4375 398.191406 383.058594 398.191406 L 236.859375 398.191406 C 236.476562 398.191406 236.171875 398.574219 236.171875 399.050781 Z M 236.171875 399.050781 "/>
</g>
</svg>
