<?xml version="1.0" encoding="UTF-8"?>
<svg xmlns="http://www.w3.org/2000/svg" xmlns:xlink="http://www.w3.org/1999/xlink" width="400px" height="400px" viewBox="0 0 400 400" version="1.1">
<g id="surface1">
<path style=" stroke:none;fill-rule:nonzero;fill:rgb(90.196078%,90.196078%,90.196078%);fill-opacity:1;" d="M 385.546875 327.03125 L 14.394531 327.03125 C 6.457031 327.03125 0 319.414062 0 310.046875 L 0 257.34375 L 399.941406 257.34375 L 399.941406 310.046875 C 399.941406 319.414062 393.484375 327.03125 385.546875 327.03125 Z M 385.546875 327.03125 "/>
<path style=" stroke:none;fill-rule:nonzero;fill:rgb(90.196078%,90.196078%,90.196078%);fill-opacity:1;" d="M 153.359375 318.214844 L 248.007812 318.214844 L 248.007812 397.980469 L 153.359375 397.980469 Z M 153.359375 318.214844 "/>
<path style=" stroke:none;fill-rule:nonzero;fill:rgb(90.196078%,90.196078%,90.196078%);fill-opacity:1;" d="M 147.664062 387.90625 L 253.699219 387.90625 L 253.699219 397.980469 L 147.664062 397.980469 Z M 147.664062 387.90625 "/>
<path style=" stroke:none;fill-rule:nonzero;fill:rgb(24.705882%,23.921569%,33.72549%);fill-opacity:1;" d="M 399.585938 279.59375 L 0 279.59375 L 0 11.65625 C 0 5.230469 4.433594 0 9.878906 0 L 389.707031 0 C 395.152344 0 399.585938 5.230469 399.585938 11.65625 Z M 399.585938 279.59375 "/>
<path style=" stroke:none;fill-rule:nonzero;fill:rgb(100%,100%,100%);fill-opacity:1;" d="M 9.25 12.175781 L 389.976562 12.175781 L 389.976562 264.898438 L 9.25 264.898438 Z M 9.25 12.175781 "/>
<path style=" stroke:none;fill-rule:nonzero;fill:rgb(100%,71.372549%,71.372549%);fill-opacity:1;" d="M 82.984375 162.804688 C 85.898438 159.964844 89.503906 159.4375 91.035156 161.625 C 92.566406 163.8125 91.445312 167.890625 88.53125 170.730469 C 87.378906 171.882812 86.011719 172.695312 84.539062 173.097656 L 72.0625 184.949219 L 67.472656 177.925781 L 80.257812 166.984375 C 80.871094 165.355469 81.804688 163.921875 82.984375 162.804688 Z M 82.984375 162.804688 "/>
<path style=" stroke:none;fill-rule:nonzero;fill:rgb(0%,0%,0%);fill-opacity:1;" d="M 10.875 189.550781 C 10.871094 189.023438 10.875 184.453125 13.742188 181.5625 C 17.039062 178.242188 21.6875 179.585938 23.320312 180.058594 C 27.089844 181.144531 27.398438 183.054688 30.9375 185.011719 C 37.554688 188.679688 29.261719 186.800781 33.199219 185.625 C 34.5625 185.21875 54.179688 183.613281 59.0625 180.070312 C 68.558594 173.171875 75.03125 168.992188 75.03125 168.992188 L 79.261719 178.972656 C 79.261719 178.972656 73.144531 189.007812 64.535156 196.441406 C 55.703125 204.066406 51.289062 207.878906 44.578125 209.351562 C 44 209.476562 29.789062 212.339844 18.34375 202.253906 C 15.734375 199.949219 10.949219 195.734375 10.875 189.550781 Z M 10.875 189.550781 "/>
<path style=" stroke:none;fill-rule:nonzero;fill:rgb(100%,71.372549%,71.372549%);fill-opacity:1;" d="M 38.734375 146.777344 C 38.734375 156.378906 32.136719 164.164062 23.996094 164.164062 C 15.859375 164.164062 9.261719 156.378906 9.261719 146.777344 C 9.261719 137.175781 15.859375 129.394531 23.996094 129.394531 C 32.136719 129.394531 38.734375 137.175781 38.734375 146.777344 Z M 38.734375 146.777344 "/>
<path style=" stroke:none;fill-rule:nonzero;fill:rgb(100%,71.372549%,71.372549%);fill-opacity:1;" d="M 139.398438 263.582031 L 124.226562 245.253906 L 116.390625 254.894531 L 127.695312 272.46875 L 138.910156 273.980469 Z M 139.398438 263.582031 "/>
<path style=" stroke:none;fill-rule:nonzero;fill:rgb(18.431373%,18.039216%,25.490196%);fill-opacity:1;" d="M 52.746094 229.210938 C 53.636719 229.300781 56.457031 229.964844 59.152344 228.214844 C 60.992188 227.023438 61.933594 225.246094 62.253906 224.679688 C 66.207031 217.675781 81.382812 206.75 95.003906 206.078125 C 98.089844 205.925781 100.121094 206.347656 101.964844 207.480469 C 104.582031 209.089844 105.625 211.394531 108.945312 216.796875 C 110.761719 219.75 112.773438 222.53125 114.613281 225.46875 C 125.375 242.648438 129.453125 244 129.035156 249.507812 C 128.574219 255.621094 122.988281 261.417969 119.273438 260.75 C 117.753906 260.476562 117.164062 259.226562 115.132812 256.703125 C 109.175781 249.296875 106.710938 250.664062 102.46875 244.992188 C 97.515625 238.371094 98.164062 232.878906 95.582031 232.667969 C 93.1875 232.46875 92.167969 237.15625 87.054688 243.378906 C 84.710938 246.222656 83.046875 247.53125 77.96875 251.6875 C 58.195312 267.871094 57.878906 269.007812 53.890625 270.300781 C 52.144531 270.863281 39.753906 274.871094 35.339844 268.492188 C 28.429688 258.511719 44.75 228.429688 52.746094 229.210938 Z M 52.746094 229.210938 "/>
<path style=" stroke:none;fill-rule:nonzero;fill:rgb(18.431373%,18.039216%,25.490196%);fill-opacity:1;" d="M 134.761719 267.722656 C 135.875 267.132812 137.183594 266.441406 137.601562 264.851562 C 137.886719 263.773438 137.722656 262.449219 137.136719 261.53125 C 136.457031 260.472656 135.453125 260.335938 135.496094 260.148438 C 135.558594 259.863281 137.929688 259.972656 140.53125 261.058594 C 141.023438 261.265625 143.25 262.222656 146.078125 264.832031 C 148.347656 266.921875 148.042969 267.339844 149.464844 268.542969 C 153.832031 272.242188 157.925781 269.328125 160.289062 272.796875 C 161.199219 274.132812 161.589844 276.035156 161.207031 277.570312 C 160.433594 280.65625 156.6875 281.71875 154.640625 282.265625 C 149.707031 283.585938 145.972656 282.507812 142.074219 281.734375 C 128.816406 279.097656 121.371094 281.5 120.371094 277.875 C 120.183594 277.1875 120.492188 277.246094 121.511719 272.214844 C 122.519531 267.246094 122.488281 265.882812 123.347656 265.484375 C 124.640625 264.886719 125.507812 267.609375 128.769531 268.542969 C 131.65625 269.367188 134.039062 268.105469 134.761719 267.722656 Z M 134.761719 267.722656 "/>
<path style=" stroke:none;fill-rule:nonzero;fill:rgb(100%,71.372549%,71.372549%);fill-opacity:1;" d="M 112.421875 323.539062 L 108.585938 298.316406 L 97.515625 301.105469 L 98.507812 323.136719 L 107.066406 331.820312 Z M 112.421875 323.539062 "/>
<path style=" stroke:none;fill-rule:nonzero;fill:rgb(18.431373%,18.039216%,25.490196%);fill-opacity:1;" d="M 57.078125 237.691406 C 57.769531 238.351562 59.785156 240.769531 62.851562 241.109375 C 64.941406 241.339844 66.566406 240.496094 67.101562 240.238281 C 73.707031 237.0625 91.464844 238.074219 103.054688 246.542969 C 105.679688 248.460938 107.160156 250.152344 108.144531 252.316406 C 109.542969 255.382812 109.3125 257.980469 109.488281 264.648438 C 109.585938 268.296875 109.925781 271.929688 110.050781 275.578125 C 110.777344 296.925781 113.507812 300.742188 110.542969 305.027344 C 107.25 309.777344 99.867188 310.875 97.113281 307.859375 C 95.988281 306.625 96.09375 305.203125 95.613281 301.765625 C 94.210938 291.691406 91.519531 291.191406 90.707031 283.6875 C 89.761719 274.925781 92.914062 270.8125 90.875 268.925781 C 88.988281 267.175781 85.914062 270.378906 78.722656 272.136719 C 75.429688 272.945312 73.429688 272.921875 67.25 272.996094 C 43.1875 273.285156 42.382812 274.019531 38.46875 272.441406 C 36.753906 271.753906 24.59375 266.859375 23.976562 258.660156 C 23.011719 245.824219 50.832031 231.742188 57.078125 237.691406 Z M 57.078125 237.691406 "/>
<path style=" stroke:none;fill-rule:nonzero;fill:rgb(18.431373%,18.039216%,25.490196%);fill-opacity:1;" d="M 106.609375 323.890625 C 107.816406 324.140625 109.222656 324.433594 110.328125 323.394531 C 111.074219 322.695312 111.570312 321.488281 111.523438 320.339844 C 111.464844 319.015625 110.699219 318.238281 110.824219 318.109375 C 111.011719 317.914062 112.917969 319.578125 114.558594 322.199219 C 114.867188 322.695312 116.25 324.964844 117.351562 328.996094 C 118.234375 332.230469 117.78125 332.371094 118.386719 334.3125 C 120.238281 340.265625 125.015625 340.566406 125.320312 345 C 125.4375 346.710938 124.855469 348.542969 123.804688 349.558594 C 121.699219 351.601562 118.09375 350 116.136719 349.09375 C 111.429688 346.917969 108.851562 343.554688 105.996094 340.332031 C 96.28125 329.367188 88.972656 326.417969 89.875 322.757812 C 90.042969 322.066406 90.269531 322.316406 93.511719 318.828125 C 96.710938 315.386719 97.332031 314.238281 98.230469 314.476562 C 99.585938 314.839844 99.007812 317.667969 101.261719 320.597656 C 103.257812 323.195312 105.828125 323.726562 106.609375 323.890625 Z M 106.609375 323.890625 "/>
<path style=" stroke:none;fill-rule:nonzero;fill:rgb(18.431373%,18.039216%,25.490196%);fill-opacity:1;" d="M 26.007812 150.101562 C 26.582031 147.679688 25.859375 146.796875 26.59375 145.710938 C 26.59375 145.710938 26.890625 145.273438 29.53125 144.09375 C 28.753906 138.757812 29.335938 137.855469 29.335938 137.855469 C 30.007812 136.816406 31.355469 136.566406 32.273438 136.699219 C 34.214844 136.988281 34.558594 139.058594 35.796875 139.011719 C 37.511719 138.945312 39.570312 134.898438 38.933594 131.386719 C 38.410156 128.523438 36.164062 126.394531 35.601562 126.765625 C 35.042969 127.128906 33.035156 125.515625 32.273438 125.839844 C 31.753906 126.0625 29.304688 125.769531 28.75 126.070312 C 28.140625 126.402344 26.40625 128.472656 26.238281 128.210938 C 25.085938 126.402344 25.109375 125.769531 24.441406 125.378906 C 23.253906 124.6875 21.964844 125.964844 19.738281 127.226562 C 15.164062 129.824219 13.824219 128.273438 11.710938 130.460938 C 10.640625 131.566406 10.070312 133.679688 8.96875 137.855469 C 7.429688 143.699219 6.65625 146.621094 7.402344 149.410156 C 8.160156 152.253906 9.277344 151.632812 10.925781 155.648438 C 12.761719 160.113281 12.128906 162.710938 13.863281 163.734375 C 15.207031 164.527344 17.359375 164.023438 18.171875 162.578125 C 19.566406 160.109375 15.964844 156.769531 17.195312 152.875 C 17.949219 150.484375 20.273438 148.671875 21.699219 149.179688 C 23.308594 149.75 23.429688 153.160156 24.441406 153.105469 C 25.304688 153.0625 25.90625 150.523438 26.007812 150.101562 Z M 26.007812 150.101562 "/>
<path style=" stroke:none;fill-rule:nonzero;fill:rgb(0%,0%,0%);fill-opacity:1;" d="M 14.84375 166.738281 C 17.859375 162.75 30.140625 166.878906 31.292969 173.207031 C 31.769531 175.8125 30.019531 176.910156 30.511719 179.910156 C 31.230469 184.292969 35.3125 183.996094 38.34375 188.457031 C 42.648438 194.796875 38.214844 200.988281 43.042969 211.566406 C 44.078125 213.824219 44.945312 215.730469 46.765625 217.570312 C 50.941406 221.800781 54.824219 220.351562 56.949219 224.273438 C 58.539062 227.207031 57.886719 230.820312 57.734375 231.667969 C 57.105469 235.140625 55.40625 235.984375 54.207031 238.828125 C 52.214844 243.5625 54.472656 247.039062 54.597656 252.695312 C 54.757812 259.769531 51.574219 269.578125 45.199219 272.796875 C 38.039062 276.410156 29.402344 270.421875 25.222656 264.476562 C 22.730469 260.929688 22.003906 257.65625 20.914062 253.617188 C 16.039062 235.566406 13.285156 237.195312 9.554688 222.886719 C 5.292969 206.527344 4.457031 187.359375 9.554688 181.296875 C 10.230469 180.492188 12.09375 178.632812 13.277344 175.289062 C 14.871094 170.785156 13.492188 168.523438 14.84375 166.738281 Z M 14.84375 166.738281 "/>
<path style=" stroke:none;fill-rule:nonzero;fill:rgb(100%,71.372549%,71.372549%);fill-opacity:1;" d="M 59.398438 259.597656 C 61.738281 263.101562 62.097656 267.367188 60.207031 269.121094 C 58.316406 270.875 54.890625 269.457031 52.550781 265.953125 C 51.601562 264.566406 50.945312 262.933594 50.640625 261.1875 L 40.894531 246.191406 L 45.929688 241.65625 L 55.921875 256.285156 C 57.289062 257.046875 58.480469 258.179688 59.398438 259.597656 Z M 59.398438 259.597656 "/>
<path style=" stroke:none;fill-rule:nonzero;fill:rgb(0%,0%,0%);fill-opacity:1;" d="M 23.703125 181.941406 C 24.136719 181.828125 27.933594 180.898438 30.914062 183.621094 C 34.34375 186.753906 34.175781 192.398438 34.117188 194.378906 C 33.984375 198.953125 32.464844 199.699219 31.558594 204.183594 C 29.871094 212.578125 33.089844 220.378906 34.867188 224.691406 C 35.484375 226.183594 37.464844 230.746094 41.402344 235.664062 C 49.0625 245.226562 55.894531 250.257812 55.894531 250.257812 L 48.554688 257.957031 C 48.554688 257.957031 36.859375 253.75 28.933594 245.324219 C 20.804688 236.679688 8.304688 206.101562 5.714844 198.648438 C 5.488281 198.007812 8.652344 208.4375 14.6875 193.160156 C 16.0625 189.675781 18.585938 183.289062 23.703125 181.941406 Z M 23.703125 181.941406 "/>
<path style=" stroke:none;fill-rule:nonzero;fill:rgb(24.705882%,23.921569%,33.72549%);fill-opacity:1;" d="M 211.617188 174.769531 L 202.851562 169.867188 C 206.445312 175.789062 209.542969 185.035156 211.203125 192.390625 C 214.011719 185.539062 218.539062 177.152344 223.019531 172.144531 L 213.753906 174.957031 C 219.464844 141.945312 240.9375 118.246094 265.527344 118.246094 L 265.875 117.050781 C 240.191406 117.050781 217.445312 140.421875 211.617188 174.769531 Z M 211.617188 174.769531 "/>
<path style=" stroke:none;fill-rule:nonzero;fill:rgb(0%,0%,0%);fill-opacity:1;" d="M 251.964844 225.066406 L 196.574219 225.066406 C 194.226562 225.066406 192.316406 222.8125 192.316406 220.039062 C 192.316406 217.269531 194.226562 215.011719 196.574219 215.011719 L 251.964844 215.011719 C 254.3125 215.011719 256.226562 217.269531 256.226562 220.039062 C 256.226562 222.8125 254.3125 225.066406 251.964844 225.066406 Z M 251.964844 225.066406 "/>
<path style=" stroke:none;fill-rule:nonzero;fill:rgb(90.196078%,90.196078%,90.196078%);fill-opacity:1;" d="M 325.667969 225.066406 L 270.277344 225.066406 C 267.929688 225.066406 266.015625 222.8125 266.015625 220.039062 C 266.015625 217.269531 267.929688 215.011719 270.277344 215.011719 L 325.667969 215.011719 C 328.015625 215.011719 329.925781 217.269531 329.925781 220.039062 C 329.925781 222.8125 328.015625 225.066406 325.667969 225.066406 Z M 325.667969 225.066406 "/>
<path style=" stroke:none;fill-rule:nonzero;fill:rgb(24.705882%,23.921569%,33.72549%);fill-opacity:1;" d="M 292.875 88.3125 L 239.035156 88.3125 C 237.679688 88.3125 236.574219 87.011719 236.574219 85.410156 C 236.574219 83.808594 237.679688 82.503906 239.035156 82.503906 L 292.875 82.503906 C 294.234375 82.503906 295.335938 83.808594 295.335938 85.410156 C 295.335938 87.011719 294.234375 88.3125 292.875 88.3125 Z M 292.875 88.3125 "/>
<path style=" stroke:none;fill-rule:nonzero;fill:rgb(24.705882%,23.921569%,33.72549%);fill-opacity:1;" d="M 321.769531 119.300781 L 210.144531 119.300781 C 208.785156 119.300781 207.683594 117.996094 207.683594 116.394531 C 207.683594 114.792969 208.785156 113.492188 210.144531 113.492188 L 321.769531 113.492188 C 323.125 113.492188 324.230469 114.792969 324.230469 116.394531 C 324.230469 117.996094 323.125 119.300781 321.769531 119.300781 Z M 321.769531 119.300781 "/>
<path style=" stroke:none;fill-rule:nonzero;fill:rgb(24.705882%,23.921569%,33.72549%);fill-opacity:1;" d="M 24.203125 398.722656 C 24.203125 399.246094 24.558594 399.664062 25 399.664062 L 374.941406 399.664062 C 375.382812 399.664062 375.738281 399.246094 375.738281 398.722656 C 375.738281 398.203125 375.382812 397.78125 374.941406 397.78125 L 25 397.78125 C 24.558594 397.78125 24.203125 398.203125 24.203125 398.722656 Z M 24.203125 398.722656 "/>
<path style=" stroke:none;fill-rule:nonzero;fill:rgb(24.705882%,23.921569%,33.72549%);fill-opacity:1;" d="M 110.128906 175.726562 C 110.035156 175.726562 109.941406 175.722656 109.84375 175.71875 C 104.238281 175.292969 85.050781 172.089844 73.597656 148.722656 C 72.652344 146.800781 72.839844 144.351562 74.058594 142.636719 L 95.273438 112.816406 C 96.140625 111.597656 97.480469 110.894531 98.835938 110.914062 C 99.773438 110.941406 101.996094 111.222656 102.425781 113.242188 C 104.976562 125.175781 115.734375 139.207031 128.675781 141.066406 C 129.988281 141.253906 131.042969 142.636719 131.492188 144.757812 C 131.847656 146.414062 131.519531 148.117188 130.597656 149.4375 L 113.605469 173.78125 C 112.742188 175.019531 111.476562 175.726562 110.128906 175.726562 Z M 98.753906 112.113281 C 97.71875 112.113281 96.710938 112.664062 96.050781 113.589844 L 74.839844 143.410156 C 73.890625 144.738281 73.746094 146.632812 74.476562 148.121094 C 85.679688 170.972656 104.429688 174.105469 109.910156 174.519531 C 111.03125 174.609375 112.105469 174.046875 112.820312 173.019531 L 129.8125 148.671875 C 130.527344 147.652344 130.78125 146.332031 130.507812 145.050781 C 130.238281 143.796875 129.585938 142.40625 128.554688 142.257812 C 115.183594 140.335938 104.070312 125.851562 101.441406 113.535156 C 101.226562 112.535156 99.945312 112.148438 98.816406 112.113281 C 98.796875 112.113281 98.777344 112.113281 98.753906 112.113281 Z M 98.753906 112.113281 "/>
<path style=" stroke:none;fill-rule:nonzero;fill:rgb(90.196078%,90.196078%,90.196078%);fill-opacity:1;" d="M 86.453125 149.703125 L 101.746094 131.304688 C 102.789062 130.050781 101.152344 128.113281 100.105469 129.371094 L 84.8125 147.769531 C 83.765625 149.027344 85.40625 150.964844 86.453125 149.703125 Z M 86.453125 149.703125 "/>
<path style=" stroke:none;fill-rule:nonzero;fill:rgb(90.196078%,90.196078%,90.196078%);fill-opacity:1;" d="M 95.683594 154.886719 C 99.902344 150.425781 103.570312 145.257812 106.574219 139.585938 C 107.367188 138.089844 105.363281 136.714844 104.574219 138.203125 C 101.667969 143.6875 98.125 148.640625 94.042969 152.953125 C 92.929688 154.132812 94.574219 156.058594 95.683594 154.886719 Z M 95.683594 154.886719 "/>
<path style=" stroke:none;fill-rule:nonzero;fill:rgb(90.196078%,90.196078%,90.196078%);fill-opacity:1;" d="M 104 161.09375 C 107.84375 156.070312 111.117188 150.464844 113.691406 144.417969 C 114.359375 142.851562 112.359375 141.464844 111.691406 143.039062 C 109.203125 148.882812 106.078125 154.304688 102.363281 159.160156 C 101.363281 160.464844 103 162.402344 104 161.09375 Z M 104 161.09375 "/>
<path style=" stroke:none;fill-rule:nonzero;fill:rgb(0%,0%,0%);fill-opacity:1;" d="M 112.867188 110.164062 C 112.867188 100.328125 105.964844 92.355469 97.449219 92.355469 C 88.933594 92.355469 82.03125 100.328125 82.03125 110.164062 C 82.03125 120 88.933594 127.972656 97.449219 127.972656 C 105.964844 127.972656 112.867188 120 112.867188 110.164062 Z M 112.867188 110.164062 "/>
<path style=" stroke:none;fill-rule:nonzero;fill:rgb(100%,100%,100%);fill-opacity:1;" d="M 105.472656 118.613281 C 103.101562 111.734375 100.730469 104.855469 98.359375 97.976562 C 98.03125 97.023438 97.003906 96.992188 96.683594 97.976562 C 94.34375 105.1875 92.8125 112.710938 92.074219 120.386719 C 91.949219 121.691406 93.6875 121.679688 93.808594 120.386719 C 94.097656 117.382812 94.527344 114.402344 95.074219 111.453125 C 97.027344 111.574219 99 111.316406 100.882812 110.699219 C 101.855469 113.519531 102.828125 116.335938 103.800781 119.15625 C 104.214844 120.359375 105.894531 119.832031 105.472656 118.613281 Z M 95.46875 109.429688 C 96.050781 106.609375 96.753906 103.820312 97.566406 101.074219 L 100.226562 108.789062 C 98.667969 109.269531 97.074219 109.484375 95.46875 109.429688 Z M 95.46875 109.429688 "/>
</g>
</svg>
