<?xml version="1.0" encoding="UTF-8"?>
<svg xmlns="http://www.w3.org/2000/svg" xmlns:xlink="http://www.w3.org/1999/xlink" width="400px" height="400px" viewBox="0 0 400 400" version="1.1">
<defs>
<filter id="alpha" filterUnits="objectBoundingBox" x="0%" y="0%" width="100%" height="100%">
  <feColorMatrix type="matrix" in="SourceGraphic" values="0 0 0 0 1 0 0 0 0 1 0 0 0 0 1 0 0 0 1 0"/>
</filter>
<mask id="mask0">
  <g filter="url(#alpha)">
<rect x="0" y="0" width="400" height="400" style="fill:rgb(0%,0%,0%);fill-opacity:0.2;stroke:none;"/>
  </g>
</mask>
<clipPath id="clip1">
  <rect x="0" y="0" width="400" height="400"/>
</clipPath>
<g id="surface5" clip-path="url(#clip1)">
<path style=" stroke:none;fill-rule:nonzero;fill:rgb(0%,0%,0%);fill-opacity:1;" d="M 315.441406 119.574219 L 315.296875 121.347656 C 313.652344 121.152344 312.03125 120.699219 310.480469 120 C 308.433594 119.144531 306.65625 117.503906 305.410156 115.3125 C 304.621094 113.839844 303.796875 112.375 302.972656 110.960938 C 301.601562 108.589844 300.242188 106.382812 299.117188 104.582031 C 297.742188 102.410156 296.707031 100.835938 296.355469 100.316406 C 296.300781 100.230469 296.261719 100.171875 296.242188 100.144531 L 296.226562 100.121094 L 296.242188 100.136719 C 303.140625 110.992188 309.65625 117.253906 315.640625 117.101562 C 315.640625 117.101562 316.34375 119.976562 315.441406 119.574219 Z M 315.441406 119.574219 "/>
</g>
</defs>
<g id="surface1">
<path style=" stroke:none;fill-rule:nonzero;fill:rgb(100%,71.372549%,71.372549%);fill-opacity:1;" d="M 278.601562 389.476562 L 271.195312 389.476562 L 267.671875 353.949219 L 278.601562 353.949219 Z M 278.601562 389.476562 "/>
<path style=" stroke:none;fill-rule:nonzero;fill:rgb(18.431373%,18.039216%,25.490196%);fill-opacity:1;" d="M 278.402344 386.46875 L 270.496094 382.46875 L 270.269531 382.351562 L 265.902344 386.46875 C 260.769531 386.46875 256.609375 391.644531 256.609375 398.027344 L 256.609375 398.402344 L 280.488281 398.402344 L 280.488281 386.46875 Z M 278.402344 386.46875 "/>
<path style=" stroke:none;fill-rule:nonzero;fill:rgb(100%,71.372549%,71.372549%);fill-opacity:1;" d="M 345.515625 377.5 L 338.890625 381.609375 L 322.992188 351.769531 L 332.777344 345.707031 Z M 345.515625 377.5 "/>
<path style=" stroke:none;fill-rule:nonzero;fill:rgb(18.431373%,18.039216%,25.490196%);fill-opacity:1;" d="M 346.128906 373.761719 L 344.433594 374.808594 L 344.261719 374.914062 L 335.761719 375.730469 L 335.507812 375.753906 L 333.074219 381.855469 C 328.480469 384.703125 326.613281 391.644531 328.90625 397.355469 L 329.039062 397.6875 L 350.410156 384.445312 Z M 346.128906 373.761719 "/>
<path style=" stroke:none;fill-rule:nonzero;fill:rgb(18.431373%,18.039216%,25.490196%);fill-opacity:1;" d="M 273.578125 198.527344 L 314.414062 200.304688 L 314.699219 199.789062 C 314.699219 199.789062 318.183594 209.898438 318.183594 218.5625 C 318.183594 221.441406 316.570312 240.285156 317.390625 243.847656 C 317.492188 244.292969 316.792969 245.378906 317.019531 247.441406 C 317.171875 248.78125 317.992188 247.753906 318.183594 249.609375 C 318.316406 250.941406 316.871094 251.675781 317.019531 253.21875 C 317.1875 254.902344 319.179688 260.359375 319.359375 262.234375 C 321.269531 282.179688 323.808594 311.074219 323.808594 311.074219 C 323.808594 311.074219 334.019531 345.085938 336.179688 345.636719 C 339.804688 346.566406 342.253906 354.761719 340.242188 356.46875 C 339.285156 357.28125 326.921875 362.742188 326.921875 362.742188 C 326.242188 362.894531 324.117188 361.570312 325.472656 358.433594 C 325.722656 357.855469 324.234375 359.324219 323.988281 358.632812 C 323.726562 357.898438 324.242188 354.976562 323.941406 354.160156 C 321.238281 346.835938 317.089844 336.6875 313.15625 331.476562 C 307.347656 323.777344 303.671875 313.96875 302.660156 303.488281 L 293.640625 241.300781 L 290.550781 258.742188 L 287.992188 261.882812 L 288.695312 269.210938 L 288.574219 276.324219 L 282.1875 305.925781 C 282.1875 305.925781 281.230469 361.210938 282.769531 362.964844 C 283.601562 363.917969 287.136719 375.628906 280.445312 376.683594 L 268.289062 375.519531 C 268.289062 375.519531 266.652344 371.226562 267.472656 369.699219 C 268.289062 368.171875 268.242188 368.585938 267.242188 366.085938 C 266.242188 363.585938 266.652344 359.351562 266.652344 359.351562 C 265.0625 339.441406 264.433594 319.429688 264.773438 299.429688 C 265.382812 266.574219 269.074219 228.832031 269.074219 228.0625 C 269.105469 227.277344 268.988281 226.492188 268.734375 225.769531 L 268.734375 223.699219 L 270.300781 216.347656 Z M 273.578125 198.527344 "/>
<path style=" stroke:none;fill-rule:nonzero;fill:rgb(0%,0%,0%);fill-opacity:1;" d="M 347.171875 184.679688 C 347.171875 195.757812 339.953125 204.738281 331.046875 204.738281 C 322.136719 204.738281 314.917969 195.757812 314.917969 184.679688 C 314.917969 173.601562 322.136719 164.621094 331.046875 164.621094 C 339.953125 164.621094 347.171875 173.601562 347.171875 184.679688 Z M 347.171875 184.679688 "/>
<path style=" stroke:none;fill-rule:nonzero;fill:rgb(100%,100%,100%);fill-opacity:1;" d="M 328.84375 195.117188 C 328.28125 195.117188 327.75 194.785156 327.410156 194.226562 L 323.011719 186.929688 C 322.414062 185.941406 322.574219 184.542969 323.367188 183.804688 C 324.160156 183.066406 325.285156 183.265625 325.878906 184.25 L 328.757812 189.023438 L 336.152344 175.234375 C 336.703125 174.207031 337.816406 173.929688 338.640625 174.613281 C 339.464844 175.296875 339.6875 176.683594 339.136719 177.707031 L 330.335938 194.125 C 330.015625 194.726562 329.476562 195.097656 328.894531 195.117188 C 328.878906 195.117188 328.863281 195.117188 328.84375 195.117188 Z M 328.84375 195.117188 "/>
<path style=" stroke:none;fill-rule:nonzero;fill:rgb(100%,72.156863%,72.156863%);fill-opacity:1;" d="M 339.019531 205.882812 C 339.339844 204.222656 339.046875 202.472656 338.230469 201.101562 C 337.410156 199.734375 336.144531 198.886719 334.773438 198.789062 L 326.511719 163.769531 L 320.921875 171.839844 L 329.816406 204.625 C 329.835938 207.5625 331.621094 210.019531 333.96875 210.339844 C 336.316406 210.660156 338.488281 208.746094 339.019531 205.882812 Z M 339.019531 205.882812 "/>
<path style=" stroke:none;fill-rule:nonzero;fill:rgb(90.196078%,90.196078%,90.196078%);fill-opacity:1;" d="M 333.191406 188.800781 L 332.117188 183.90625 L 333.347656 180.980469 L 333.253906 180.640625 L 332.882812 179.328125 L 330.953125 177.40625 L 331.644531 174.960938 L 329.207031 166.34375 L 328.609375 164.851562 L 314.613281 129.898438 L 311.257812 121.515625 L 310.480469 120 L 308.058594 115.277344 L 304.75 108.828125 C 303.6875 106.746094 301.996094 105.28125 300.058594 104.765625 C 299.746094 104.679688 299.433594 104.617188 299.117188 104.582031 L 298.890625 104.5625 C 298.324219 104.523438 297.757812 104.5625 297.203125 104.683594 L 297.191406 104.683594 C 296.207031 104.898438 295.269531 105.359375 294.4375 106.042969 C 293.78125 106.570312 293.199219 107.222656 292.707031 107.976562 C 291.578125 109.722656 290.992188 111.914062 291.054688 114.152344 L 291.15625 117.675781 L 291.261719 120.878906 L 296.171875 131.925781 L 296.492188 132.648438 L 296.5 132.671875 L 311.609375 166.675781 L 316.167969 176.929688 L 316.859375 178.488281 L 319.925781 181.015625 L 319.105469 183.558594 L 319.34375 187.515625 L 321.949219 189.960938 L 325.730469 194.734375 L 325.878906 195.125 L 327.042969 194.394531 L 327.152344 194.324219 L 327.414062 194.230469 L 331.007812 192.878906 L 333.191406 192.0625 L 333.257812 192.035156 L 333.855469 191.847656 Z M 333.191406 188.800781 "/>
<path style=" stroke:none;fill-rule:nonzero;fill:rgb(94.901961%,94.901961%,94.901961%);fill-opacity:1;" d="M 395.316406 347.761719 C 393.074219 344.21875 389.328125 342.730469 385.851562 344 L 385.480469 344.136719 L 382.148438 360.316406 C 381.648438 357.90625 380.582031 352.460938 379.90625 347.132812 L 379.847656 346.691406 L 379.519531 346.871094 C 376.035156 348.789062 372.757812 351.242188 369.769531 354.179688 C 359.054688 364.871094 352.660156 380.882812 352.289062 397.960938 L 352.285156 398.273438 L 352.277344 398.46875 L 352.71875 398.273438 L 362.1875 394.0625 C 370.679688 394.996094 379.054688 391.109375 384.980469 383.492188 C 388.804688 378.476562 391.429688 372.019531 393.96875 365.773438 C 394.710938 363.957031 395.472656 362.078125 396.25 360.273438 C 398.023438 356.257812 397.65625 351.300781 395.316406 347.761719 Z M 395.316406 347.761719 "/>
<path style=" stroke:none;fill-rule:nonzero;fill:rgb(24.705882%,23.921569%,33.72549%);fill-opacity:1;" d="M 152.328125 79.164062 L 151.167969 79.164062 L 151.167969 23.535156 L 235.148438 23.535156 L 235.148438 24.980469 L 152.328125 24.980469 Z M 152.328125 79.164062 "/>
<path style=" stroke:none;fill-rule:nonzero;fill:rgb(0%,0%,0%);fill-opacity:1;" d="M 264.152344 20.058594 C 264.152344 31.136719 256.933594 40.117188 248.027344 40.117188 C 239.117188 40.117188 231.898438 31.136719 231.898438 20.058594 C 231.898438 8.980469 239.117188 0 248.027344 0 C 256.933594 0 264.152344 8.980469 264.152344 20.058594 Z M 264.152344 20.058594 "/>
<path style=" stroke:none;fill-rule:nonzero;fill:rgb(100%,100%,100%);fill-opacity:1;" d="M 245.824219 30.496094 C 245.261719 30.496094 244.730469 30.167969 244.390625 29.605469 L 239.992188 22.308594 C 239.398438 21.320312 239.558594 19.921875 240.351562 19.183594 C 241.140625 18.445312 242.265625 18.644531 242.863281 19.628906 L 245.738281 24.402344 L 253.132812 10.613281 C 253.683594 9.585938 254.796875 9.308594 255.621094 9.992188 C 256.445312 10.675781 256.667969 12.0625 256.117188 13.085938 L 247.320312 29.503906 C 246.996094 30.105469 246.457031 30.476562 245.875 30.496094 C 245.859375 30.496094 245.84375 30.496094 245.824219 30.496094 Z M 245.824219 30.496094 "/>
<path style=" stroke:none;fill-rule:nonzero;fill:rgb(24.705882%,23.921569%,33.72549%);fill-opacity:1;" d="M 95.433594 214.214844 L 94.273438 214.214844 L 94.273438 269.839844 L 178.253906 269.839844 L 178.253906 268.394531 L 95.433594 268.394531 Z M 95.433594 214.214844 "/>
<path style=" stroke:none;fill-rule:nonzero;fill:rgb(0%,0%,0%);fill-opacity:1;" d="M 207.261719 269.878906 C 207.261719 280.953125 200.039062 289.933594 191.132812 289.933594 C 182.226562 289.933594 175.003906 280.953125 175.003906 269.878906 C 175.003906 258.800781 182.226562 249.820312 191.132812 249.820312 C 200.039062 249.820312 207.261719 258.800781 207.261719 269.878906 Z M 207.261719 269.878906 "/>
<path style=" stroke:none;fill-rule:nonzero;fill:rgb(100%,100%,100%);fill-opacity:1;" d="M 188.933594 280.316406 C 188.367188 280.316406 187.835938 279.984375 187.496094 279.421875 L 183.097656 272.128906 C 182.503906 271.140625 182.664062 269.742188 183.457031 269.003906 C 184.25 268.265625 185.371094 268.464844 185.96875 269.449219 L 188.847656 274.222656 L 196.238281 260.429688 C 196.789062 259.40625 197.902344 259.125 198.726562 259.8125 C 199.554688 260.496094 199.773438 261.882812 199.222656 262.90625 L 190.425781 279.324219 C 190.101562 279.925781 189.5625 280.296875 188.980469 280.316406 C 188.964844 280.316406 188.949219 280.316406 188.933594 280.316406 Z M 188.933594 280.316406 "/>
<path style=" stroke:none;fill-rule:nonzero;fill:rgb(90.196078%,90.196078%,90.196078%);fill-opacity:1;" d="M 318.761719 216.257812 C 318.78125 217.777344 318.582031 219.292969 318.183594 220.726562 L 318.09375 220.707031 C 307.785156 222.925781 298.585938 223.289062 294.332031 215.414062 C 288.78125 206.625 281.144531 206.722656 272.625 210.582031 L 271.617188 209.226562 L 269.898438 206.921875 L 271.476562 204.699219 L 269.898438 200.410156 L 271.214844 195.117188 L 272.898438 194.734375 L 272.445312 190.179688 L 271.738281 187.515625 L 273.816406 184.675781 L 275.582031 177.59375 L 274.308594 162.769531 C 272.570312 142.453125 275.941406 121.964844 283.957031 104.128906 L 288.785156 98.742188 L 290.785156 96.503906 L 293.472656 90.265625 L 296.3125 90.675781 L 304 91.78125 L 304.261719 92.5625 L 306.148438 98.222656 L 316.085938 111.5 L 315.640625 117.101562 L 315.441406 119.574219 L 315.296875 121.347656 L 314.613281 129.898438 L 311.820312 164.820312 L 311.609375 166.675781 L 309.363281 186.757812 C 313.015625 191.148438 316.242188 199.601562 317.792969 207.328125 C 317.96875 208.1875 317.472656 209.058594 317.601562 209.898438 C 317.78125 211.082031 318.566406 212.207031 318.652344 213.3125 C 318.734375 214.292969 318.769531 215.273438 318.761719 216.257812 Z M 318.761719 216.257812 "/>
<path style=" stroke:none;fill-rule:nonzero;fill:rgb(100%,71.372549%,71.372549%);fill-opacity:1;" d="M 312.429688 71.425781 C 312.429688 80.597656 306.449219 88.03125 299.078125 88.03125 C 291.703125 88.03125 285.726562 80.597656 285.726562 71.425781 C 285.726562 62.257812 291.703125 54.824219 299.078125 54.824219 C 306.449219 54.824219 312.429688 62.257812 312.429688 71.425781 Z M 312.429688 71.425781 "/>
<path style=" stroke:none;fill-rule:nonzero;fill:rgb(18.431373%,18.039216%,25.490196%);fill-opacity:1;" d="M 315.171875 66.898438 C 314.382812 63.832031 312.214844 61.242188 309.640625 60.902344 C 310.039062 56.753906 308.546875 52.675781 305.773438 50.324219 C 302.996094 47.96875 299.398438 47.734375 296.441406 49.707031 C 295.8125 48.769531 294.835938 48.308594 293.867188 48.492188 C 292.914062 48.6875 292.015625 49.175781 291.253906 49.917969 C 287.402344 53.421875 285.410156 59.277344 286.070312 65.160156 C 286.066406 63.695312 286.585938 66.527344 288.082031 66.777344 C 289.328125 67.089844 290.515625 67.699219 291.574219 68.570312 C 292.636719 69.441406 293.820312 70.058594 295.0625 70.386719 C 296.316406 70.617188 296.640625 76.871094 295.742188 80.902344 C 295.574219 81.664062 295.488281 82.6875 296.054688 83.050781 C 296.75 83.5 297.453125 82.375 298.234375 82.265625 C 298.960938 82.25 299.566406 82.953125 299.601562 83.855469 C 299.605469 84.742188 299.261719 85.574219 298.683594 86.085938 C 298.113281 86.589844 297.476562 86.96875 296.804688 87.21875 L 297.03125 87.617188 C 297.4375 88.554688 298.320312 89 299.136719 88.683594 C 300.03125 90.023438 309.230469 86.304688 309.679688 83.859375 C 311.605469 81.703125 313.207031 79.132812 314.402344 76.269531 C 315.601562 73.378906 315.875 70.03125 315.171875 66.898438 Z M 315.171875 66.898438 "/>
<path style=" stroke:none;fill-rule:nonzero;fill:rgb(90.196078%,90.196078%,90.196078%);fill-opacity:1;" d="M 325.96875 117.464844 C 325.78125 119.398438 324.324219 120.84375 322.792969 121.246094 C 322.011719 121.433594 321.214844 121.453125 320.429688 121.296875 C 319.664062 121.15625 318.90625 120.945312 318.164062 120.671875 C 317.246094 120.34375 316.339844 119.980469 315.441406 119.574219 C 312.878906 118.433594 310.40625 116.996094 308.058594 115.277344 C 306.28125 113.988281 304.582031 112.546875 302.972656 110.960938 C 302.136719 110.136719 301.324219 109.277344 300.539062 108.382812 L 301.519531 108.960938 C 300.644531 107.492188 299.765625 106.027344 298.890625 104.5625 C 298.042969 103.148438 297.199219 101.730469 296.355469 100.316406 C 296.300781 100.230469 296.261719 100.171875 296.242188 100.144531 L 296.242188 100.136719 C 295.855469 99.492188 295.472656 98.851562 295.089844 98.207031 C 293.933594 96.28125 292.796875 93.449219 294.125 91.710938 C 294.699219 91.023438 295.503906 90.71875 296.289062 90.894531 C 296.707031 90.960938 297.109375 91.121094 297.480469 91.371094 C 298.496094 92.1875 299.355469 93.269531 300.003906 94.539062 C 300.910156 92.902344 302.671875 92.292969 304.261719 92.5625 C 304.347656 92.570312 304.429688 92.582031 304.511719 92.597656 C 306.164062 92.953125 306.878906 91.839844 308.3125 92.929688 C 308.980469 93.4375 309.386719 96.035156 310.054688 96.539062 C 310.433594 96.828125 311.832031 97.261719 312.214844 97.558594 C 312.96875 98.136719 312.777344 100.292969 313.539062 100.871094 C 314.101562 101.296875 315.609375 100.152344 316.171875 100.578125 C 316.765625 101.03125 317.589844 104.035156 318.183594 104.484375 C 319.359375 105.386719 320.308594 103.738281 321.484375 104.632812 C 323 105.796875 324.613281 107.089844 325.253906 109.152344 C 325.816406 110.972656 325.089844 113.464844 323.691406 113.984375 C 325.082031 114.191406 326.089844 115.730469 325.96875 117.464844 Z M 325.96875 117.464844 "/>
<use xlink:href="#surface5" mask="url(#mask0)"/>
<path style=" stroke:none;fill-rule:nonzero;fill:rgb(100%,72.156863%,72.156863%);fill-opacity:1;" d="M 252.316406 32.621094 C 251.972656 34.273438 252.234375 36.03125 253.03125 37.417969 C 253.828125 38.808594 255.082031 39.6875 256.449219 39.816406 L 264.167969 75.027344 L 269.882812 67.09375 L 261.5 34.097656 C 261.523438 31.160156 259.777344 28.664062 257.4375 28.289062 C 255.09375 27.910156 252.894531 29.773438 252.316406 32.621094 Z M 252.316406 32.621094 "/>
<path style=" stroke:none;fill-rule:nonzero;fill:rgb(90.196078%,90.196078%,90.196078%);fill-opacity:1;" d="M 297.625 122.65625 L 297.574219 119.449219 L 292.707031 107.976562 L 292.527344 107.558594 L 292.515625 107.535156 L 288.785156 98.742188 L 270.769531 56.269531 L 268.835938 55.386719 L 268.933594 51.933594 L 268.835938 48.164062 L 266.511719 46.226562 L 265.519531 43.890625 L 264.117188 44.390625 L 264.109375 44.390625 L 264.070312 44.402344 L 257.925781 46.546875 L 257.921875 46.546875 L 256.644531 47.441406 L 255.484375 51.773438 L 255.230469 53.824219 L 255.484375 57.550781 L 258.386719 58.273438 L 257.425781 62.09375 L 260.34375 73.082031 C 263.992188 92.289062 268.980469 108.863281 277.589844 118.332031 L 278.296875 119.773438 L 283.902344 131.175781 C 285.464844 134.363281 288.417969 136.070312 291.382812 135.5 L 291.390625 135.5 C 292.375 135.308594 293.320312 134.875 294.164062 134.214844 C 294.945312 133.617188 295.625 132.839844 296.171875 131.925781 C 297.175781 130.273438 297.703125 128.253906 297.675781 126.1875 Z M 297.625 122.65625 "/>
<path style=" stroke:none;fill-rule:nonzero;fill:rgb(79.215686%,79.215686%,79.215686%);fill-opacity:1;" d="M 399.402344 399.925781 L 241.636719 400.148438 C 241.257812 400.148438 240.945312 399.761719 240.945312 399.289062 C 240.945312 398.8125 241.257812 398.429688 241.636719 398.429688 L 399.402344 398.207031 C 399.785156 398.207031 400.09375 398.589844 400.09375 399.066406 C 400.09375 399.539062 399.785156 399.925781 399.402344 399.925781 Z M 399.402344 399.925781 "/>
<path style=" stroke:none;fill-rule:nonzero;fill:rgb(94.901961%,94.901961%,94.901961%);fill-opacity:1;" d="M 48.550781 110.980469 C 48.539062 100.128906 51.875 89.683594 57.867188 81.792969 L 37.300781 46.589844 C 35.589844 43.65625 32.933594 41.792969 30.027344 41.488281 C 27.125 41.183594 24.253906 42.464844 22.171875 45.003906 C 7.9375 62.257812 -0.0625 85.953125 0 110.675781 C 0 115.296875 0.277344 119.910156 0.828125 124.476562 C 1.265625 128.136719 2.976562 131.367188 5.507812 133.308594 C 8.007812 135.234375 11.0625 135.691406 13.855469 134.558594 L 49.367188 120.207031 C 48.824219 117.179688 48.550781 114.085938 48.550781 110.980469 Z M 48.550781 110.980469 "/>
<path style=" stroke:none;fill-rule:nonzero;fill:rgb(90.196078%,90.196078%,90.196078%);fill-opacity:1;" d="M 50.4375 124.929688 L 13.523438 139.847656 C 10.757812 140.957031 8.515625 143.507812 7.382812 146.835938 C 6.246094 150.160156 6.328125 153.933594 7.605469 157.179688 C 18.273438 184.101562 38.828125 202.863281 62.675781 207.449219 C 65.574219 208.003906 68.519531 206.957031 70.742188 204.582031 C 72.960938 202.214844 74.238281 198.757812 74.238281 195.121094 L 74.238281 152.238281 C 63.132812 148.652344 54.203125 138.40625 50.4375 124.929688 Z M 50.4375 124.929688 "/>
<path style=" stroke:none;fill-rule:nonzero;fill:rgb(24.705882%,23.921569%,33.72549%);fill-opacity:1;" d="M 161.457031 151.722656 C 160.199219 148 157.695312 145.140625 154.605469 143.890625 L 114.34375 127.621094 C 109.558594 141.613281 99.148438 151.375 87.015625 153.246094 L 87.015625 205.421875 C 87.019531 209.472656 88.441406 213.324219 90.914062 215.960938 C 93.390625 218.597656 96.667969 219.761719 99.886719 219.148438 C 126.4375 214.039062 149.316406 193.15625 161.191406 163.1875 C 162.617188 159.59375 162.714844 155.410156 161.457031 151.722656 Z M 161.457031 151.722656 "/>
<path style=" stroke:none;fill-rule:nonzero;fill:rgb(0%,0%,0%);fill-opacity:1;" d="M 151.457031 32.054688 C 149.136719 29.230469 145.941406 27.800781 142.707031 28.140625 C 139.472656 28.480469 136.519531 30.550781 134.613281 33.820312 L 107.085938 80.9375 C 113.480469 88.910156 117.066406 99.71875 117.054688 110.980469 C 117.054688 112.019531 117.015625 113.042969 116.957031 114.0625 L 160.710938 131.742188 C 163.84375 133 167.261719 132.480469 170.054688 130.316406 C 172.851562 128.15625 174.738281 124.574219 175.214844 120.523438 C 175.828125 115.4375 176.136719 110.300781 176.136719 105.15625 C 176.203125 77.640625 167.300781 51.261719 151.457031 32.054688 Z M 151.457031 32.054688 "/>
<path style=" stroke:none;fill-rule:nonzero;fill:rgb(90.196078%,90.196078%,90.196078%);fill-opacity:1;" d="M 82.804688 68.382812 C 88.695312 68.375 94.492188 70.265625 99.621094 73.875 L 116.421875 45.113281 C 118.15625 42.148438 118.757812 38.390625 118.066406 34.824219 C 117.398438 31.328125 115.535156 28.375 112.964844 26.734375 C 91.925781 13.429688 67.050781 13.382812 45.980469 26.613281 C 43.328125 28.277344 41.398438 31.304688 40.699219 34.898438 C 40.011719 38.4375 40.609375 42.171875 42.332031 45.117188 L 61.390625 77.742188 C 67.460938 71.671875 75.015625 68.371094 82.804688 68.382812 Z M 82.804688 68.382812 "/>
</g>
</svg>
